<svg id="Layer_1" data-name="Layer 1" xmlns="http://www.w3.org/2000/svg" viewBox="0 0 512 512"><title>around-globe-plane-glyph</title><path d="M217.12,239.2c2.9-4.47,1-19.12,1-19.12C110.41,183,29.78,136.44,34.35,117.56c2.22-9.36,5.35-13.43,7.52-14.16,4.8-1.61,15.71,4.13,29.09,12.93L93.13,90.25C82.66,83.79,56.76,62.5,31.33,70.8,21,74.15,7.27,83.62,1,109.53-13.57,170.27,131.25,225.05,208.93,252l8.18-12.81Z" fill="#231f20"/><path d="M469.2,121.51c-3.56-5-7.3-9.91-11.2-14.59A232.74,232.74,0,0,0,278.8,22.78h-.56c-.23,0-.5.05-.78.05A232.8,232.8,0,0,0,99.65,106.92c-3.9,4.73-7.63,9.58-11.14,14.59-2.73,3.84-5.24,7.8-7.69,11.76,4.85,3.06,10.37,6.35,16.55,9.8,2.13-3.4,4.24-6.79,6.52-10.09a243.26,243.26,0,0,0,49.8,25.14c-1,3.73-1.82,7.63-2.72,11.42,5.68,2.51,11.63,5,17.72,7.47,1-4.29,1.84-8.63,3-12.76,29.42,9,62.52,14.43,97.62,15.27v24.35l1.17.72,1.67,10,2.56,15.32,13.71,3.52V179.52c6.79-.17,13.43-.61,20.06-1.11l5-14.21,1.9-5.46c-8.8.84-17.78,1.45-27,1.67V42.72c38.84,6,72.33,46.25,91.33,103.81-9.2,2.73-18.95,5-28.87,6.91a45.23,45.23,0,0,1,17.55,15.49c5.57-1.39,11.2-2.73,16.6-4.4A358.91,358.91,0,0,1,396.49,254H366.84c-.33,1.95-.61,3.73-.94,5.79,11.59,4.79,25.41,10.47,28.41,11.7,8.86,3.67,15.49,9.14,19.89,15.88.4-4.73.84-9.42,1-14.27h46c-.83,6-1.62,11.93-2.67,17.61,2.95-1.51,5.46-4.4,6.8-9.92a26,26,0,0,0,.67-7.69h26.19a212,212,0,0,1-38.4,105.81A245.12,245.12,0,0,0,403,353.43c1.06-3.79,1.89-7.69,2.84-11.59a35.76,35.76,0,0,1-22.29,7.41,57.68,57.68,0,0,1-9.08-.78l-.67-.11c-2.28-.18-5.46-.46-24.85-7.08,2.28-3.06,5-7.13,8-11.81v-9.58c9,3.12,16.72,5.63,18.51,5.73,5,.34,17.77,4.74,21.45-10.53s-5.85-20.28-11.2-22.46c-3-1.22-17.05-7-28.76-11.81V261.43l-6.68,16.66c-5.8-2.4-9.92-4.12-9.92-4.12s14.43-79.68,10.48-89.77S335,171.83,335,171.83L303.49,261l-34.22-8.86-14.64-3.78-5-29.93-15.93-10.24s.94,24.68-1.46,38a26.33,26.33,0,0,1-1.66,6.07c-.27.56-.79,1.23-1.18,1.84a75.1,75.1,0,0,1-7.18,9.42v0c-1.38,1.56-2.84,3.12-4.24,4.68-.15.17-.33.34-.49.51-1.35,1.45-2.66,2.84-4,4.13-4.35,4.4-7.86,7.68-7.86,7.68l14,10.37,23.22-17.72,5.25-4.07,8.36,4.07,21.11,10.14,10.81,5.18,2.39,1.17-35.1,87.48s11.54,10.31,20.17,3.63,45.58-73.56,45.58-73.56,6.41,2.39,14.88,5.41l-2,4.9c1.12,0,2.23-.17,3.35-.17v20.06c-.84-.33-1.62-.55-2.51-.89-1.22-.22-2.51-.33-3.74-.5-3.79,6.69-7.24,12.65-10.31,17.93a335.42,335.42,0,0,1,58.62,11.48c-19.06,57.56-52.54,97.79-91.38,103.81V399.78a33.38,33.38,0,0,1-19.12,6.07v63.53C230,464,196.11,423.75,176.88,365.74a335.68,335.68,0,0,1,63.75-12.26l7.92-19.83a357.14,357.14,0,0,0-77,14.15,354.07,354.07,0,0,1-11.08-74.61h19.72l5-4.74q-23.4-8-44.24-16.1c0,.56-.05,1.12-.05,1.68H64.78A208,208,0,0,1,68,219.25c-6.14-3.34-12-6.63-17.56-10A234.18,234.18,0,0,0,45.6,256,231.85,231.85,0,0,0,88.46,390.48c3.5,5,7.24,9.92,11.14,14.61,42.58,51,106.43,83.7,177.82,84.08.27,0,.55.05.84.05h.56a232.72,232.72,0,0,0,179.15-84.14c4-4.69,7.64-9.59,11.19-14.61a232.57,232.57,0,0,0,.06-269ZM159.1,140.29a222.1,222.1,0,0,1-44-21.9,214.53,214.53,0,0,1,95.52-65.25C189.2,73.76,171.43,104,159.1,140.29Zm110.17,20.12c-33.32-.77-64.69-5.85-92.33-14.16C196.17,88.3,230,48,269.27,42.61ZM65.5,273.19h75.77a370.56,370.56,0,0,0,12.43,80.69A243.57,243.57,0,0,0,103.89,379,212.66,212.66,0,0,1,65.5,273.19Zm49.64,120.42a221.45,221.45,0,0,1,44-21.9c12.26,36.27,30.1,66.53,51.56,87.15a214.81,214.81,0,0,1-95.52-65.24Zm230.14,65.85c21.79-20.72,39.9-51.31,52.26-88.09a220.43,220.43,0,0,1,44.91,22.24,214.51,214.51,0,0,1-97.18,65.85Zm0-406.93a214.69,214.69,0,0,1,97.23,65.86,220.75,220.75,0,0,1-38,19.45l-1.12-.28-.28.84c-1.84.78-3.67,1.57-5.57,2.23-12.42-36.72-30.48-67.32-52.26-88.1ZM415.6,254A372.91,372.91,0,0,0,403,158.51,244.36,244.36,0,0,0,453.77,133a212.58,212.58,0,0,1,39.06,121Z" fill="#231f20"/></svg>